# vtk DataFile Version 3.0
vtk output
ASCII
DATASET POLYDATA
POINTS 248 float
0.0 0.0 0.0
0.0 0.08333333333333331 0.0
0.0 0.16666666666666663 0.0
0.0 0.24999999999999994 0.0
0.0 0.33333333333333326 0.0
0.0 0.41666666666666685 0.0
0.0 0.4999999999999999 0.0
0.0 0.5833333333333335 0.0
0.0 0.6666666666666665 0.0
0.0 0.7500000000000001 0.0
0.0 0.8333333333333335 0.0
0.0 0.9166666666666667 0.0
0.0 1.0 0.0
0.0 1.0833333333333335 0.0
0.0 1.1666666666666667 0.0
0.0 1.25 0.0
0.0 1.3333333333333333 0.0
0.0 1.4166666666666665 0.0
0.0 1.5 0.0
0.0 1.5833333333333333 0.0
0.0 1.666666666666667 0.0
0.0 1.75 0.0
0.0 1.8333333333333333 0.0
0.0 1.9166666666666667 0.0
0.0 2.0 0.0
0.0 2.0833333333333335 0.0
0.0 2.1666666666666665 0.0
0.0 2.25 0.0
0.0 2.3333333333333335 0.0
0.0 2.4166666666666665 0.0
0.0 2.5 0.0
0.0 2.5 0.0
0.0 2.583333333333333 0.0
0.0 2.666666666666667 0.0
0.0 2.75 0.0
0.0 2.8333333333333335 0.0
0.0 2.916666666666667 0.0
0.0 3.0 0.0
0.0 3.0833333333333335 0.0
0.0 3.1666666666666665 0.0
0.0 3.25 0.0
0.0 3.3333333333333335 0.0
0.0 3.416666666666667 0.0
0.0 3.5 0.0
0.0 3.5833333333333335 0.0
0.0 3.666666666666667 0.0
0.0 3.75 0.0
0.0 3.833333333333333 0.0
0.0 3.9166666666666665 0.0
0.0 4.0 0.0
0.0 4.083333333333333 0.0
0.0 4.166666666666667 0.0
0.0 4.25 0.0
0.0 4.333333333333333 0.0
0.0 4.416666666666667 0.0
0.0 4.5 0.0
0.0 4.583333333333334 0.0
0.0 4.666666666666667 0.0
0.0 4.75 0.0
0.0 4.833333333333334 0.0
0.0 4.916666666666667 0.0
0.0 5.0 0.0
0.0 5.0 0.0
0.0 5.083333333333333 0.0
0.0 5.166666666666667 0.0
0.0 5.25 0.0
0.0 5.333333333333334 0.0
0.0 5.416666666666666 0.0
0.0 5.5 0.0
0.0 5.583333333333334 0.0
0.0 5.666666666666666 0.0
0.0 5.75 0.0
0.0 5.833333333333334 0.0
0.0 5.916666666666666 0.0
0.0 6.0 0.0
0.0 6.083333333333333 0.0
0.0 6.166666666666666 0.0
0.0 6.25 0.0
0.0 6.333333333333334 0.0
0.0 6.416666666666667 0.0
0.0 6.5 0.0
0.0 6.583333333333334 0.0
0.0 6.666666666666667 0.0
0.0 6.75 0.0
0.0 6.833333333333334 0.0
0.0 6.916666666666666 0.0
0.0 7.0 0.0
0.0 7.083333333333333 0.0
0.0 7.166666666666666 0.0
0.0 7.25 0.0
0.0 7.333333333333333 0.0
0.0 7.416666666666666 0.0
0.0 7.5 0.0
0.0 7.5 0.0
0.0 7.583333333333333 0.0
0.0 7.666666666666666 0.0
0.0 7.75 0.0
0.0 7.833333333333333 0.0
0.0 7.916666666666666 0.0
0.0 8.0 0.0
0.0 8.083333333333334 0.0
0.0 8.166666666666666 0.0
0.0 8.25 0.0
0.0 8.333333333333334 0.0
0.0 8.416666666666668 0.0
0.0 8.5 0.0
0.0 8.583333333333334 0.0
0.0 8.666666666666668 0.0
0.0 8.75 0.0
0.0 8.833333333333332 0.0
0.0 8.916666666666666 0.0
0.0 9.0 0.0
0.0 9.083333333333332 0.0
0.0 9.166666666666668 0.0
0.0 9.25 0.0
0.0 9.333333333333334 0.0
0.0 9.416666666666666 0.0
0.0 9.5 0.0
0.0 9.583333333333334 0.0
0.0 9.666666666666666 0.0
0.0 9.75 0.0
0.0 9.833333333333334 0.0
0.0 9.916666666666666 0.0
0.0 10.0 0.0
0.0 10.0 0.0
-0.08333333333333331 10.0 0.0
-0.16666666666666663 10.0 0.0
-0.24999999999999994 10.0 0.0
-0.33333333333333326 10.0 0.0
-0.41666666666666685 10.0 0.0
-0.4999999999999999 10.0 0.0
-0.5833333333333335 10.0 0.0
-0.6666666666666665 10.0 0.0
-0.7500000000000001 10.0 0.0
-0.8333333333333335 10.0 0.0
-0.9166666666666667 10.0 0.0
-1.0 10.0 0.0
-1.0833333333333335 10.0 0.0
-1.1666666666666667 10.0 0.0
-1.25 10.0 0.0
-1.3333333333333333 10.0 0.0
-1.4166666666666665 10.0 0.0
-1.5 10.0 0.0
-1.5833333333333333 10.0 0.0
-1.666666666666667 10.0 0.0
-1.75 10.0 0.0
-1.8333333333333333 10.0 0.0
-1.9166666666666667 10.0 0.0
-2.0 10.0 0.0
-2.0833333333333335 10.0 0.0
-2.1666666666666665 10.0 0.0
-2.25 10.0 0.0
-2.3333333333333335 10.0 0.0
-2.4166666666666665 10.0 0.0
-2.5 10.0 0.0
-2.5 10.0 0.0
-2.583333333333333 10.0 0.0
-2.666666666666667 10.0 0.0
-2.75 10.0 0.0
-2.8333333333333335 10.0 0.0
-2.916666666666667 10.0 0.0
-3.0 10.0 0.0
-3.0833333333333335 10.0 0.0
-3.1666666666666665 10.0 0.0
-3.25 10.0 0.0
-3.3333333333333335 10.0 0.0
-3.416666666666667 10.0 0.0
-3.5 10.0 0.0
-3.5833333333333335 10.0 0.0
-3.666666666666667 10.0 0.0
-3.75 10.0 0.0
-3.833333333333333 10.0 0.0
-3.9166666666666665 10.0 0.0
-4.0 10.0 0.0
-4.083333333333333 10.0 0.0
-4.166666666666667 10.0 0.0
-4.25 10.0 0.0
-4.333333333333333 10.0 0.0
-4.416666666666667 10.0 0.0
-4.5 10.0 0.0
-4.583333333333334 10.0 0.0
-4.666666666666667 10.0 0.0
-4.75 10.0 0.0
-4.833333333333334 10.0 0.0
-4.916666666666667 10.0 0.0
-5.0 10.0 0.0
-5.0 10.0 0.0
-5.083333333333333 10.0 0.0
-5.166666666666667 10.0 0.0
-5.25 10.0 0.0
-5.333333333333334 10.0 0.0
-5.416666666666666 10.0 0.0
-5.5 10.0 0.0
-5.583333333333334 10.0 0.0
-5.666666666666666 10.0 0.0
-5.75 10.0 0.0
-5.833333333333334 10.0 0.0
-5.916666666666666 10.0 0.0
-6.0 10.0 0.0
-6.083333333333333 10.0 0.0
-6.166666666666666 10.0 0.0
-6.25 10.0 0.0
-6.333333333333334 10.0 0.0
-6.416666666666667 10.0 0.0
-6.5 10.0 0.0
-6.583333333333334 10.0 0.0
-6.666666666666667 10.0 0.0
-6.75 10.0 0.0
-6.833333333333334 10.0 0.0
-6.916666666666666 10.0 0.0
-7.0 10.0 0.0
-7.083333333333333 10.0 0.0
-7.166666666666666 10.0 0.0
-7.25 10.0 0.0
-7.333333333333333 10.0 0.0
-7.416666666666666 10.0 0.0
-7.5 10.0 0.0
-7.5 10.0 0.0
-7.583333333333333 10.0 0.0
-7.666666666666666 10.0 0.0
-7.75 10.0 0.0
-7.833333333333333 10.0 0.0
-7.916666666666666 10.0 0.0
-8.0 10.0 0.0
-8.083333333333334 10.0 0.0
-8.166666666666666 10.0 0.0
-8.25 10.0 0.0
-8.333333333333334 10.0 0.0
-8.416666666666668 10.0 0.0
-8.5 10.0 0.0
-8.583333333333334 10.0 0.0
-8.666666666666668 10.0 0.0
-8.75 10.0 0.0
-8.833333333333332 10.0 0.0
-8.916666666666666 10.0 0.0
-9.0 10.0 0.0
-9.083333333333332 10.0 0.0
-9.166666666666668 10.0 0.0
-9.25 10.0 0.0
-9.333333333333334 10.0 0.0
-9.416666666666666 10.0 0.0
-9.5 10.0 0.0
-9.583333333333334 10.0 0.0
-9.666666666666666 10.0 0.0
-9.75 10.0 0.0
-9.833333333333334 10.0 0.0
-9.916666666666666 10.0 0.0
-10.0 10.0 0.0
LINES 8 256
31
0
1
2
3
4
5
6
7
8
9
10
11
12
13
14
15
16
17
18
19
20
21
22
23
24
25
26
27
28
29
30
31
31
32
33
34
35
36
37
38
39
40
41
42
43
44
45
46
47
48
49
50
51
52
53
54
55
56
57
58
59
60
61
31
62
63
64
65
66
67
68
69
70
71
72
73
74
75
76
77
78
79
80
81
82
83
84
85
86
87
88
89
90
91
92
31
93
94
95
96
97
98
99
100
101
102
103
104
105
106
107
108
109
110
111
112
113
114
115
116
117
118
119
120
121
122
123
31
124
125
126
127
128
129
130
131
132
133
134
135
136
137
138
139
140
141
142
143
144
145
146
147
148
149
150
151
152
153
154
31
155
156
157
158
159
160
161
162
163
164
165
166
167
168
169
170
171
172
173
174
175
176
177
178
179
180
181
182
183
184
185
31
186
187
188
189
190
191
192
193
194
195
196
197
198
199
200
201
202
203
204
205
206
207
208
209
210
211
212
213
214
215
216
31
217
218
219
220
221
222
223
224
225
226
227
228
229
230
231
232
233
234
235
236
237
238
239
240
241
242
243
244
245
246
247
